<svg width="1200" height="1200" viewBox="0 0 1200 1200" fill="none" xmlns="http://www.w3.org/2000/svg">
<g clip-path="url(#clip0_3803_7272)">
<rect width="1200" height="1200" fill="black"/>
<rect width="1200" height="1200" fill="url(#paint0_linear_3803_7272)"/>
<rect opacity="0.3" x="321.381" y="159.758" width="557.239" height="880.485" fill="url(#paint1_linear_3803_7272)"/>
<rect opacity="0.3" x="149.193" y="-112.313" width="901.614" height="1424.63" fill="url(#paint2_linear_3803_7272)"/>
<path fill-rule="evenodd" clip-rule="evenodd" d="M772.486 327.909H427.514V872.091H772.486V327.909ZM591.415 455.834H612.787V490.673C644.991 494.187 667.241 509.703 680.415 526.391L656.994 542.785C650.846 533.417 637.379 519.364 611.908 515.851V582.309C666.07 593.434 682.465 611.292 682.465 642.911C682.465 675.701 659.336 701.171 612.787 704.391V743.622H591.415V704.099C563.309 702.049 534.619 690.924 516.174 666.332L537.839 648.181C551.013 664.283 567.701 676.286 592.293 678.921V605.73C543.987 595.776 526.421 574.404 526.421 546.884C526.421 514.387 552.184 493.016 591.415 490.381V455.834ZM592.293 578.21V515.266C569.165 517.315 556.869 528.44 556.869 545.713C556.869 561.23 560.675 570.891 592.293 578.21ZM651.724 644.375C651.724 629.737 648.211 617.44 611.908 609.536V679.214C637.379 676.872 651.724 663.697 651.724 644.375Z" fill="url(#paint3_linear_3803_7272)"/>
<rect x="427" y="872" width="345" height="70" fill="url(#paint4_linear_3803_7272)"/>
</g>
<defs>
<linearGradient id="paint0_linear_3803_7272" x1="600" y1="0" x2="600" y2="1200" gradientUnits="userSpaceOnUse">
<stop stop-color="#06737A"/>
<stop offset="1" stop-color="#06737A" stop-opacity="0.5"/>
</linearGradient>
<linearGradient id="paint1_linear_3803_7272" x1="600" y1="159.758" x2="600" y2="1040.24" gradientUnits="userSpaceOnUse">
<stop stop-color="#27BFB6"/>
<stop offset="1" stop-color="#27BFB6" stop-opacity="0.2"/>
</linearGradient>
<linearGradient id="paint2_linear_3803_7272" x1="600.001" y1="-112.313" x2="600.001" y2="1312.31" gradientUnits="userSpaceOnUse">
<stop stop-color="#27BFB6"/>
<stop offset="1" stop-color="#27BFB6" stop-opacity="0.2"/>
</linearGradient>
<linearGradient id="paint3_linear_3803_7272" x1="600" y1="327.909" x2="600" y2="872.091" gradientUnits="userSpaceOnUse">
<stop stop-color="#27BFB6"/>
<stop offset="1" stop-color="#27BFB6" stop-opacity="0.2"/>
</linearGradient>
<linearGradient id="paint4_linear_3803_7272" x1="599.5" y1="872" x2="599.5" y2="942" gradientUnits="userSpaceOnUse">
<stop stop-color="#27BFB6"/>
<stop offset="1" stop-color="#27BFB6" stop-opacity="0.2"/>
</linearGradient>
<clipPath id="clip0_3803_7272">
<rect width="1200" height="1200" fill="white"/>
</clipPath>
</defs>
</svg>
